<?xml version="1.0" encoding="utf-8"?>
<!-- Generator: Adobe Illustrator 18.1.1, SVG Export Plug-In . SVG Version: 6.00 Build 0)  -->
<svg version="1.1" id="Layer_1" xmlns="http://www.w3.org/2000/svg" xmlns:xlink="http://www.w3.org/1999/xlink" x="0px" y="0px"
	 viewBox="0 0 560 560" enable-background="new 0 0 560 560" xml:space="preserve">
<g opacity="0.59">
	
		<linearGradient id="SVGID_1_" gradientUnits="userSpaceOnUse" x1="-177.541" y1="281.6486" x2="-425.7432" y2="333.5892" gradientTransform="matrix(-1 3.939617e-003 3.939617e-003 1 76.073 -0.806)">
		<stop  offset="0" style="stop-color:#FCEE21"/>
		<stop  offset="7.266897e-002" style="stop-color:#FBE521"/>
		<stop  offset="0.1935" style="stop-color:#FACB20"/>
		<stop  offset="0.3466" style="stop-color:#F8A21E"/>
		<stop  offset="0.3966" style="stop-color:#F7931E"/>
		<stop  offset="0.7075" style="stop-color:#F15A24"/>
		<stop  offset="0.9944" style="stop-color:#C1272D"/>
	</linearGradient>
	<path fill="url(#SVGID_1_)" d="M290.2,265.3c17.6-18.1,42.5-25.8,64.4-13.1c-7.6-4-10-4.6-15.3-11.3c20.3,4.7,41,7.9,61.7,9.5
		c18.7,1.4,38.4,1.3,54.8-7.7c-9,11.7-21.3,20.8-35,26.1c-7.7,3-15.8,4.7-23.9,6c25.1,0.8,50.3,5,73.7,14.4
		c23.3,9.4,44.7,24.2,60.1,44.1c-27.8-21.5-65.7-24.5-96.9-40.7c28.2,15.5,49.1,43.7,55.6,75.2c-27.2-18.3-51.6-40.2-75.9-62.2
		c11.4,13.1,23,26.4,30.2,42.2c7.3,15.8,9.7,34.7,2.5,50.5c-15-21.1-30.4-42.7-51.3-57.9c-6.1-4.4-12.7-8.3-20-10
		c-6.1-1.4-19.1,4.5-25.3,3.9c-19.7-1.8-31.7-17.5-44.1-32.8c-3.5-4.3-6.5-9-10.7-12.5c-4.2-3.5-9.4-5.8-14.8-6.5"/>
</g>
<g opacity="0.59">
	
		<linearGradient id="SVGID_2_" gradientUnits="userSpaceOnUse" x1="-195.9403" y1="256.9622" x2="-444.1424" y2="308.9029" gradientTransform="matrix(-0.9992 -4.104777e-002 -4.104777e-002 0.9992 87.5629 6.089)">
		<stop  offset="0" style="stop-color:#FCEE21"/>
		<stop  offset="7.266897e-002" style="stop-color:#FBE521"/>
		<stop  offset="0.1935" style="stop-color:#FACB20"/>
		<stop  offset="0.3466" style="stop-color:#F8A21E"/>
		<stop  offset="0.3966" style="stop-color:#F7931E"/>
		<stop  offset="0.7075" style="stop-color:#F15A24"/>
		<stop  offset="0.9944" style="stop-color:#C1272D"/>
	</linearGradient>
	<path fill="url(#SVGID_2_)" d="M308.9,257.7c18.4-17.3,43.6-23.8,64.9-10.2c-7.4-4.3-9.7-5.1-14.8-12c20.1,5.6,40.6,9.7,61.3,12.2
		c18.6,2.3,38.3,3,55.1-5.3c-9.5,11.3-22.2,19.8-36.2,24.5c-7.8,2.6-16,4-24.2,4.9c25.1,1.9,50.1,7.3,72.9,17.7
		c22.9,10.5,43.6,26.2,58.1,46.7c-26.8-22.8-64.5-27.4-95-45c27.5,16.7,47,45.9,52.1,77.6c-26.3-19.5-49.7-42.5-73-65.5
		c10.8,13.6,21.8,27.5,28.3,43.6s8.2,35.1,0.2,50.5c-14-21.8-28.4-44-48.7-60.2c-5.9-4.7-12.3-8.9-19.6-10.9
		c-6-1.6-19.3,3.6-25.5,2.8c-19.6-2.7-30.8-18.9-42.6-34.7c-3.3-4.4-6.1-9.2-10.1-13c-4-3.7-9.1-6.3-14.5-7.2"/>
</g>
<g opacity="0.59">
	
		<linearGradient id="SVGID_3_" gradientUnits="userSpaceOnUse" x1="305.4326" y1="279.7458" x2="57.2305" y2="331.6865" gradientTransform="matrix(1 3.939617e-003 -3.939617e-003 1 0.7949 -0.806)">
		<stop  offset="0" style="stop-color:#FCEE21"/>
		<stop  offset="7.266897e-002" style="stop-color:#FBE521"/>
		<stop  offset="0.1935" style="stop-color:#FACB20"/>
		<stop  offset="0.3466" style="stop-color:#F8A21E"/>
		<stop  offset="0.3966" style="stop-color:#F7931E"/>
		<stop  offset="0.7075" style="stop-color:#F15A24"/>
		<stop  offset="0.9944" style="stop-color:#C1272D"/>
	</linearGradient>
	<path fill="url(#SVGID_3_)" d="M269.6,265.3c-17.6-18.1-42.5-25.8-64.4-13.1c7.6-4,10-4.6,15.3-11.3c-20.3,4.7-41,7.9-61.7,9.5
		c-18.7,1.4-38.4,1.3-54.8-7.7c9,11.7,21.3,20.8,35,26.1c7.7,3,15.8,4.7,23.9,6c-25.1,0.8-50.3,5-73.7,14.4s-44.7,24.2-60.1,44.1
		c27.8-21.5,65.7-24.5,96.9-40.7c-28.2,15.5-49.1,43.7-55.6,75.2c27.2-18.3,51.6-40.2,75.9-62.2c-11.4,13.1-23,26.4-30.2,42.2
		c-7.3,15.8-9.7,34.7-2.5,50.5c15-21.1,30.4-42.7,51.3-57.9c6.1-4.4,12.7-8.3,20-10c6.1-1.4,19.1,4.5,25.3,3.9
		c19.7-1.8,31.7-17.5,44.1-32.8c3.5-4.3,6.5-9,10.7-12.5c4.2-3.5,9.4-5.8,14.8-6.5"/>
</g>
<g opacity="0.59">
	
		<linearGradient id="SVGID_4_" gradientUnits="userSpaceOnUse" x1="286.6301" y1="276.7874" x2="38.428" y2="328.728" gradientTransform="matrix(0.9992 -4.104777e-002 4.104777e-002 0.9992 -10.695 6.089)">
		<stop  offset="0" style="stop-color:#FCEE21"/>
		<stop  offset="7.266897e-002" style="stop-color:#FBE521"/>
		<stop  offset="0.1935" style="stop-color:#FACB20"/>
		<stop  offset="0.3466" style="stop-color:#F8A21E"/>
		<stop  offset="0.3966" style="stop-color:#F7931E"/>
		<stop  offset="0.7075" style="stop-color:#F15A24"/>
		<stop  offset="0.9944" style="stop-color:#C1272D"/>
	</linearGradient>
	<path fill="url(#SVGID_4_)" d="M250.9,257.7c-18.4-17.3-43.6-23.8-64.9-10.2c7.4-4.3,9.7-5.1,14.8-12c-20.1,5.6-40.6,9.7-61.3,12.2
		c-18.6,2.3-38.3,3-55.1-5.3c9.5,11.3,22.2,19.8,36.2,24.5c7.8,2.6,16,4,24.2,4.9c-25.1,1.9-50.1,7.3-72.9,17.7
		s-43.6,26.2-58.1,46.7c26.8-22.8,64.5-27.4,95-45c-27.5,16.7-47,45.9-52.1,77.6c26.3-19.5,49.7-42.5,73-65.5
		c-10.8,13.6-21.8,27.5-28.3,43.6c-6.5,16.1-8.2,35.1-0.2,50.5c14-21.8,28.4-44,48.7-60.2c5.9-4.7,12.3-8.9,19.6-10.9
		c6-1.6,19.3,3.6,25.5,2.8c19.6-2.7,30.8-18.9,42.6-34.7c3.3-4.4,6.1-9.2,10.1-13c4-3.7,9.1-6.3,14.5-7.2"/>
</g>
<g opacity="0.59">
	
		<linearGradient id="SVGID_5_" gradientUnits="userSpaceOnUse" x1="-177.1013" y1="393.2684" x2="-425.3034" y2="445.2091" gradientTransform="matrix(-1 -3.939617e-003 3.939617e-003 -1 76.073 667.2946)">
		<stop  offset="0" style="stop-color:#FCEE21"/>
		<stop  offset="7.266897e-002" style="stop-color:#FBE521"/>
		<stop  offset="0.1935" style="stop-color:#FACB20"/>
		<stop  offset="0.3466" style="stop-color:#F8A21E"/>
		<stop  offset="0.3966" style="stop-color:#F7931E"/>
		<stop  offset="0.7075" style="stop-color:#F15A24"/>
		<stop  offset="0.9944" style="stop-color:#C1272D"/>
	</linearGradient>
	<path fill="url(#SVGID_5_)" d="M290.2,289.5c17.6,18.1,42.5,25.8,64.4,13.1c-7.6,4-10,4.6-15.3,11.3c20.3-4.7,41-7.9,61.7-9.5
		c18.7-1.4,38.4-1.3,54.8,7.7c-9-11.7-21.3-20.8-35-26.1c-7.7-3-15.8-4.7-23.9-6c25.1-0.8,50.3-5,73.7-14.4
		c23.3-9.4,44.7-24.2,60.1-44.1c-27.8,21.5-65.7,24.5-96.9,40.7c28.2-15.5,49.1-43.7,55.6-75.2c-27.2,18.3-51.6,40.2-75.9,62.2
		c11.4-13.1,23-26.4,30.2-42.2s9.7-34.7,2.5-50.5c-15,21.1-30.4,42.7-51.3,57.9c-6.1,4.4-12.7,8.3-20,10c-6.1,1.4-19.1-4.5-25.3-3.9
		c-19.7,1.8-31.7,17.5-44.1,32.8c-3.5,4.3-6.5,9-10.7,12.5c-4.2,3.5-9.4,5.8-14.8,6.5"/>
</g>
<g opacity="0.59">
	
		<linearGradient id="SVGID_6_" gradientUnits="userSpaceOnUse" x1="-200.522" y1="368.4889" x2="-448.7242" y2="420.4295" gradientTransform="matrix(-0.9992 4.104777e-002 -4.104777e-002 -0.9992 87.5629 660.3995)">
		<stop  offset="0" style="stop-color:#FCEE21"/>
		<stop  offset="7.266897e-002" style="stop-color:#FBE521"/>
		<stop  offset="0.1935" style="stop-color:#FACB20"/>
		<stop  offset="0.3466" style="stop-color:#F8A21E"/>
		<stop  offset="0.3966" style="stop-color:#F7931E"/>
		<stop  offset="0.7075" style="stop-color:#F15A24"/>
		<stop  offset="0.9944" style="stop-color:#C1272D"/>
	</linearGradient>
	<path fill="url(#SVGID_6_)" d="M308.9,297.2c18.4,17.3,43.6,23.8,64.9,10.2c-7.4,4.3-9.7,5.1-14.8,12c20.1-5.6,40.6-9.7,61.3-12.2
		c18.6-2.3,38.3-3,55.1,5.3c-9.5-11.3-22.2-19.8-36.2-24.5c-7.8-2.6-16-4-24.2-4.9c25.1-1.9,50.1-7.3,72.9-17.7
		c22.9-10.5,43.6-26.2,58.1-46.7c-26.8,22.8-64.5,27.4-95,45c27.5-16.7,47-45.9,52.1-77.6c-26.3,19.5-49.7,42.5-73,65.5
		c10.8-13.6,21.8-27.5,28.3-43.6s8.2-35.1,0.2-50.5c-14,21.8-28.4,44-48.7,60.2c-5.9,4.7-12.3,8.9-19.6,10.9
		c-6,1.6-19.3-3.6-25.5-2.8c-19.6,2.7-30.8,18.9-42.6,34.7c-3.3,4.4-6.1,9.2-10.1,13c-4,3.7-9.1,6.3-14.5,7.2"/>
</g>
<g opacity="0.59">
	
		<linearGradient id="SVGID_7_" gradientUnits="userSpaceOnUse" x1="305.8724" y1="391.3657" x2="57.6703" y2="443.3063" gradientTransform="matrix(1 -3.939617e-003 -3.939617e-003 -1 0.7949 667.2946)">
		<stop  offset="0" style="stop-color:#FCEE21"/>
		<stop  offset="7.266897e-002" style="stop-color:#FBE521"/>
		<stop  offset="0.1935" style="stop-color:#FACB20"/>
		<stop  offset="0.3466" style="stop-color:#F8A21E"/>
		<stop  offset="0.3966" style="stop-color:#F7931E"/>
		<stop  offset="0.7075" style="stop-color:#F15A24"/>
		<stop  offset="0.9944" style="stop-color:#C1272D"/>
	</linearGradient>
	<path fill="url(#SVGID_7_)" d="M269.6,289.5c-17.6,18.1-42.5,25.8-64.4,13.1c7.6,4,10,4.6,15.3,11.3c-20.3-4.7-41-7.9-61.7-9.5
		c-18.7-1.4-38.4-1.3-54.8,7.7c9-11.7,21.3-20.8,35-26.1c7.7-3,15.8-4.7,23.9-6c-25.1-0.8-50.3-5-73.7-14.4s-44.7-24.2-60.1-44.1
		c27.8,21.5,65.7,24.5,96.9,40.7c-28.2-15.5-49.1-43.7-55.6-75.2c27.2,18.3,51.6,40.2,75.9,62.2c-11.4-13.1-23-26.4-30.2-42.2
		c-7.3-15.8-9.7-34.7-2.5-50.5c15,21.1,30.4,42.7,51.3,57.9c6.1,4.4,12.7,8.3,20,10c6.1,1.4,19.1-4.5,25.3-3.9
		c19.7,1.8,31.7,17.5,44.1,32.8c3.5,4.3,6.5,9,10.7,12.5c4.2,3.5,9.4,5.8,14.8,6.5"/>
</g>
<g opacity="0.59">
	
		<linearGradient id="SVGID_8_" gradientUnits="userSpaceOnUse" x1="282.0483" y1="388.314" x2="33.8462" y2="440.2547" gradientTransform="matrix(0.9992 4.104777e-002 4.104777e-002 -0.9992 -10.695 660.3995)">
		<stop  offset="0" style="stop-color:#FCEE21"/>
		<stop  offset="7.266897e-002" style="stop-color:#FBE521"/>
		<stop  offset="0.1935" style="stop-color:#FACB20"/>
		<stop  offset="0.3466" style="stop-color:#F8A21E"/>
		<stop  offset="0.3966" style="stop-color:#F7931E"/>
		<stop  offset="0.7075" style="stop-color:#F15A24"/>
		<stop  offset="0.9944" style="stop-color:#C1272D"/>
	</linearGradient>
	<path fill="url(#SVGID_8_)" d="M250.9,297.2c-18.4,17.3-43.6,23.8-64.9,10.2c7.4,4.3,9.7,5.1,14.8,12c-20.1-5.6-40.6-9.7-61.3-12.2
		c-18.6-2.3-38.3-3-55.1,5.3c9.5-11.3,22.2-19.8,36.2-24.5c7.8-2.6,16-4,24.2-4.9c-25.1-1.9-50.1-7.3-72.9-17.7
		c-22.9-10.5-43.6-26.2-58.1-46.7c26.8,22.8,64.5,27.4,95,45c-27.5-16.7-47-45.9-52.1-77.6c26.3,19.5,49.7,42.5,73,65.5
		c-10.8-13.6-21.8-27.5-28.3-43.6c-6.5-16.1-8.2-35.1-0.2-50.5c14,21.8,28.4,44,48.7,60.2c5.9,4.7,12.3,8.9,19.6,10.9
		c6,1.6,19.3-3.6,25.5-2.8c19.6,2.7,30.8,18.9,42.6,34.7c3.3,4.4,6.1,9.2,10.1,13c4,3.7,9.1,6.3,14.5,7.2"/>
</g>
<g opacity="0.59">
	
		<linearGradient id="SVGID_9_" gradientUnits="userSpaceOnUse" x1="-57.2925" y1="344.4857" x2="-305.4947" y2="396.4263" gradientTransform="matrix(-3.939617e-003 -1 -1 3.939617e-003 621.473 191.8946)">
		<stop  offset="0" style="stop-color:#FCEE21"/>
		<stop  offset="7.266897e-002" style="stop-color:#FBE521"/>
		<stop  offset="0.1935" style="stop-color:#FACB20"/>
		<stop  offset="0.3466" style="stop-color:#F8A21E"/>
		<stop  offset="0.3966" style="stop-color:#F7931E"/>
		<stop  offset="0.7075" style="stop-color:#F15A24"/>
		<stop  offset="0.9944" style="stop-color:#C1272D"/>
	</linearGradient>
	<path fill="url(#SVGID_9_)" d="M292,286c18.1,17.6,25.8,42.5,13.1,64.4c4-7.6,4.6-10,11.3-15.3c-4.7,20.3-7.9,41-9.5,61.7
		c-1.4,18.7-1.3,38.4,7.7,54.8c-11.7-9-20.8-21.3-26.1-35c-3-7.7-4.7-15.8-6-23.9c-0.8,25.1-5,50.3-14.4,73.7
		c-9.4,23.3-24.2,44.7-44.1,60.1c21.5-27.8,24.5-65.7,40.7-96.9c-15.5,28.2-43.7,49.1-75.2,55.6c18.3-27.2,40.2-51.6,62.2-75.9
		c-13.1,11.4-26.4,23-42.2,30.2s-34.7,9.7-50.5,2.5c21.1-15,42.7-30.4,57.9-51.3c4.4-6.1,8.3-12.7,10-20c1.4-6.1-4.5-19.1-3.9-25.3
		c1.8-19.7,17.5-31.7,32.8-44.1c4.3-3.5,9-6.5,12.5-10.7c3.5-4.2,5.8-9.4,6.5-14.8"/>
</g>
<g opacity="0.59">
	
		<linearGradient id="SVGID_10_" gradientUnits="userSpaceOnUse" x1="-78.6402" y1="325.145" x2="-326.8423" y2="377.0856" gradientTransform="matrix(4.104777e-002 -0.9992 -0.9992 -4.104777e-002 614.5779 203.3845)">
		<stop  offset="0" style="stop-color:#FCEE21"/>
		<stop  offset="7.266897e-002" style="stop-color:#FBE521"/>
		<stop  offset="0.1935" style="stop-color:#FACB20"/>
		<stop  offset="0.3466" style="stop-color:#F8A21E"/>
		<stop  offset="0.3966" style="stop-color:#F7931E"/>
		<stop  offset="0.7075" style="stop-color:#F15A24"/>
		<stop  offset="0.9944" style="stop-color:#C1272D"/>
	</linearGradient>
	<path fill="url(#SVGID_10_)" d="M299.7,304.7c17.3,18.4,23.8,43.6,10.2,64.9c4.3-7.4,5.1-9.7,12-14.8c-5.6,20.1-9.7,40.6-12.2,61.3
		c-2.3,18.6-3,38.3,5.3,55.1c-11.3-9.5-19.8-22.2-24.5-36.2c-2.6-7.8-4-16-4.9-24.2c-1.9,25.1-7.3,50.1-17.7,72.9
		c-10.5,22.9-26.2,43.6-46.7,58.1c22.8-26.8,27.4-64.5,45-95c-16.7,27.5-45.9,47-77.6,52.1c19.5-26.3,42.5-49.7,65.5-73
		c-13.6,10.8-27.5,21.8-43.6,28.3c-16.1,6.5-35.1,8.2-50.5,0.2c21.8-14,44-28.4,60.2-48.7c4.7-5.9,8.9-12.3,10.9-19.6
		c1.6-6-3.6-19.3-2.8-25.5c2.7-19.6,18.9-30.8,34.7-42.6c4.4-3.3,9.2-6.1,13-10.1c3.7-4,6.3-9.1,7.2-14.5"/>
</g>
<g opacity="0.59">
	
		<linearGradient id="SVGID_11_" gradientUnits="userSpaceOnUse" x1="185.683" y1="343.5284" x2="-62.5191" y2="395.4691" gradientTransform="matrix(-3.939617e-003 1 -1 -3.939617e-003 621.473 116.6165)">
		<stop  offset="0" style="stop-color:#FCEE21"/>
		<stop  offset="7.266897e-002" style="stop-color:#FBE521"/>
		<stop  offset="0.1935" style="stop-color:#FACB20"/>
		<stop  offset="0.3466" style="stop-color:#F8A21E"/>
		<stop  offset="0.3966" style="stop-color:#F7931E"/>
		<stop  offset="0.7075" style="stop-color:#F15A24"/>
		<stop  offset="0.9944" style="stop-color:#C1272D"/>
	</linearGradient>
	<path fill="url(#SVGID_11_)" d="M292,265.4c18.1-17.6,25.8-42.5,13.1-64.4c4,7.6,4.6,10,11.3,15.3c-4.7-20.3-7.9-41-9.5-61.7
		c-1.4-18.7-1.3-38.4,7.7-54.8c-11.7,9-20.8,21.3-26.1,35c-3,7.7-4.7,15.8-6,23.9c-0.8-25.1-5-50.3-14.4-73.7
		c-9.4-23.3-24.2-44.7-44.1-60.1c21.5,27.8,24.5,65.7,40.7,96.9c-15.5-28.2-43.7-49.1-75.2-55.6c18.3,27.2,40.2,51.6,62.2,75.9
		c-13.1-11.4-26.4-23-42.2-30.2c-15.8-7.3-34.7-9.7-50.5-2.5c21.1,15,42.7,30.4,57.9,51.3c4.4,6.1,8.3,12.7,10,20
		c1.4,6.1-4.5,19.1-3.9,25.3c1.8,19.7,17.5,31.7,32.8,44.1c4.3,3.5,9,6.5,12.5,10.7c3.5,4.2,5.8,9.4,6.5,14.8"/>
</g>
<g opacity="0.59">
	
		<linearGradient id="SVGID_12_" gradientUnits="userSpaceOnUse" x1="164.1325" y1="335.1187" x2="-84.0696" y2="387.0593" gradientTransform="matrix(4.104777e-002 0.9992 -0.9992 4.104777e-002 614.5779 105.1266)">
		<stop  offset="0" style="stop-color:#FCEE21"/>
		<stop  offset="7.266897e-002" style="stop-color:#FBE521"/>
		<stop  offset="0.1935" style="stop-color:#FACB20"/>
		<stop  offset="0.3466" style="stop-color:#F8A21E"/>
		<stop  offset="0.3966" style="stop-color:#F7931E"/>
		<stop  offset="0.7075" style="stop-color:#F15A24"/>
		<stop  offset="0.9944" style="stop-color:#C1272D"/>
	</linearGradient>
	<path fill="url(#SVGID_12_)" d="M299.7,246.7c17.3-18.4,23.8-43.6,10.2-64.9c4.3,7.4,5.1,9.7,12,14.8c-5.6-20.1-9.7-40.6-12.2-61.3
		c-2.3-18.6-3-38.3,5.3-55.1c-11.3,9.5-19.8,22.2-24.5,36.2c-2.6,7.8-4,16-4.9,24.2c-1.9-25.1-7.3-50.1-17.7-72.9
		C257.3,44.7,241.6,24,221,9.5c22.8,26.8,27.4,64.5,45,95c-16.7-27.5-45.9-47-77.6-52.1c19.5,26.3,42.5,49.7,65.5,73
		c-13.6-10.8-27.5-21.8-43.6-28.3s-35.1-8.2-50.5-0.2c21.8,14,44,28.4,60.2,48.7c4.7,5.9,8.9,12.3,10.9,19.6
		c1.6,6-3.6,19.3-2.8,25.5c2.7,19.6,18.9,30.8,34.7,42.6c4.4,3.3,9.2,6.1,13,10.1c3.7,4,6.3,9.1,7.2,14.5"/>
</g>
<g opacity="0.59">
	
		<linearGradient id="SVGID_13_" gradientUnits="userSpaceOnUse" x1="-57.3516" y1="329.4858" x2="-305.5538" y2="381.4265" gradientTransform="matrix(3.939617e-003 -1 1 3.939617e-003 -46.6277 191.8946)">
		<stop  offset="0" style="stop-color:#FCEE21"/>
		<stop  offset="7.266897e-002" style="stop-color:#FBE521"/>
		<stop  offset="0.1935" style="stop-color:#FACB20"/>
		<stop  offset="0.3466" style="stop-color:#F8A21E"/>
		<stop  offset="0.3966" style="stop-color:#F7931E"/>
		<stop  offset="0.7075" style="stop-color:#F15A24"/>
		<stop  offset="0.9944" style="stop-color:#C1272D"/>
	</linearGradient>
	<path fill="url(#SVGID_13_)" d="M267.8,286c-18.1,17.6-25.8,42.5-13.1,64.4c-4-7.6-4.6-10-11.3-15.3c4.7,20.3,7.9,41,9.5,61.7
		c1.4,18.7,1.3,38.4-7.7,54.8c11.7-9,20.8-21.3,26.1-35c3-7.7,4.7-15.8,6-23.9c0.8,25.1,5,50.3,14.4,73.7s24.2,44.7,44.1,60.1
		c-21.5-27.8-24.5-65.7-40.7-96.9c15.5,28.2,43.7,49.1,75.2,55.6c-18.3-27.2-40.2-51.6-62.2-75.9c13.1,11.4,26.4,23,42.2,30.2
		s34.7,9.7,50.5,2.5c-21.1-15-42.7-30.4-57.9-51.3c-4.4-6.1-8.3-12.7-10-20c-1.4-6.1,4.5-19.1,3.9-25.3
		c-1.8-19.7-17.5-31.7-32.8-44.1c-4.3-3.5-9-6.5-12.5-10.7c-3.5-4.2-5.8-9.4-6.5-14.8"/>
</g>
<g opacity="0.59">
	
		<linearGradient id="SVGID_14_" gradientUnits="userSpaceOnUse" x1="-78.0244" y1="310.1576" x2="-326.2266" y2="362.0983" gradientTransform="matrix(-4.104777e-002 -0.9992 0.9992 -4.104777e-002 -39.7326 203.3845)">
		<stop  offset="0" style="stop-color:#FCEE21"/>
		<stop  offset="7.266897e-002" style="stop-color:#FBE521"/>
		<stop  offset="0.1935" style="stop-color:#FACB20"/>
		<stop  offset="0.3466" style="stop-color:#F8A21E"/>
		<stop  offset="0.3966" style="stop-color:#F7931E"/>
		<stop  offset="0.7075" style="stop-color:#F15A24"/>
		<stop  offset="0.9944" style="stop-color:#C1272D"/>
	</linearGradient>
	<path fill="url(#SVGID_14_)" d="M260.2,304.7c-17.3,18.4-23.8,43.6-10.2,64.9c-4.3-7.4-5.1-9.7-12-14.8
		c5.6,20.1,9.7,40.6,12.2,61.3c2.3,18.6,3,38.3-5.3,55.1c11.3-9.5,19.8-22.2,24.5-36.2c2.6-7.8,4-16,4.9-24.2
		c1.9,25.1,7.3,50.1,17.7,72.9c10.5,22.9,26.2,43.6,46.7,58.1c-22.8-26.8-27.4-64.5-45-95c16.7,27.5,45.9,47,77.6,52.1
		c-19.5-26.3-42.5-49.7-65.5-73c13.6,10.8,27.5,21.8,43.6,28.3c16.1,6.5,35.1,8.2,50.5,0.2c-21.8-14-44-28.4-60.2-48.7
		c-4.7-5.9-8.9-12.3-10.9-19.6c-1.6-6,3.6-19.3,2.8-25.5c-2.7-19.6-18.9-30.8-34.7-42.6c-4.4-3.3-9.2-6.1-13-10.1
		c-3.7-4-6.3-9.1-7.2-14.5"/>
</g>
<g opacity="0.59">
	
		<linearGradient id="SVGID_15_" gradientUnits="userSpaceOnUse" x1="185.6239" y1="328.5285" x2="-62.5782" y2="380.4692" gradientTransform="matrix(3.939617e-003 1 1 -3.939617e-003 -46.6277 116.6165)">
		<stop  offset="0" style="stop-color:#FCEE21"/>
		<stop  offset="7.266897e-002" style="stop-color:#FBE521"/>
		<stop  offset="0.1935" style="stop-color:#FACB20"/>
		<stop  offset="0.3466" style="stop-color:#F8A21E"/>
		<stop  offset="0.3966" style="stop-color:#F7931E"/>
		<stop  offset="0.7075" style="stop-color:#F15A24"/>
		<stop  offset="0.9944" style="stop-color:#C1272D"/>
	</linearGradient>
	<path fill="url(#SVGID_15_)" d="M267.8,265.4c-18.1-17.6-25.8-42.5-13.1-64.4c-4,7.6-4.6,10-11.3,15.3c4.7-20.3,7.9-41,9.5-61.7
		c1.4-18.7,1.3-38.4-7.7-54.8c11.7,9,20.8,21.3,26.1,35c3,7.7,4.7,15.8,6,23.9c0.8-25.1,5-50.3,14.4-73.7s24.2-44.7,44.1-60.1
		c-21.5,27.8-24.5,65.7-40.7,96.9c15.5-28.2,43.7-49.1,75.2-55.6c-18.3,27.2-40.2,51.6-62.2,75.9c13.1-11.4,26.4-23,42.2-30.2
		c15.8-7.3,34.7-9.7,50.5-2.5c-21.1,15-42.7,30.4-57.9,51.3c-4.4,6.1-8.3,12.7-10,20c-1.4,6.1,4.5,19.1,3.9,25.3
		c-1.8,19.7-17.5,31.7-32.8,44.1c-4.3,3.5-9,6.5-12.5,10.7c-3.5,4.2-5.8,9.4-6.5,14.8"/>
</g>
<g opacity="0.59">
	
		<linearGradient id="SVGID_16_" gradientUnits="userSpaceOnUse" x1="164.7482" y1="320.1313" x2="-83.4539" y2="372.0719" gradientTransform="matrix(-4.104777e-002 0.9992 0.9992 4.104777e-002 -39.7326 105.1266)">
		<stop  offset="0" style="stop-color:#FCEE21"/>
		<stop  offset="7.266897e-002" style="stop-color:#FBE521"/>
		<stop  offset="0.1935" style="stop-color:#FACB20"/>
		<stop  offset="0.3466" style="stop-color:#F8A21E"/>
		<stop  offset="0.3966" style="stop-color:#F7931E"/>
		<stop  offset="0.7075" style="stop-color:#F15A24"/>
		<stop  offset="0.9944" style="stop-color:#C1272D"/>
	</linearGradient>
	<path fill="url(#SVGID_16_)" d="M260.2,246.7c-17.3-18.4-23.8-43.6-10.2-64.9c-4.3,7.4-5.1,9.7-12,14.8
		c5.6-20.1,9.7-40.6,12.2-61.3c2.3-18.6,3-38.3-5.3-55.1c11.3,9.5,19.8,22.2,24.5,36.2c2.6,7.8,4,16,4.9,24.2
		c1.9-25.1,7.3-50.1,17.7-72.9c10.5-22.9,26.2-43.6,46.7-58.1c-22.8,26.8-27.4,64.5-45,95c16.7-27.5,45.9-47,77.6-52.1
		c-19.5,26.3-42.5,49.7-65.5,73c13.6-10.8,27.5-21.8,43.6-28.3s35.1-8.2,50.5-0.2c-21.8,14-44,28.4-60.2,48.7
		c-4.7,5.9-8.9,12.3-10.9,19.6c-1.6,6,3.6,19.3,2.8,25.5c-2.7,19.6-18.9,30.8-34.7,42.6c-4.4,3.3-9.2,6.1-13,10.1
		c-3.7,4-6.3,9.1-7.2,14.5"/>
</g>
<g opacity="0.59">
	
		<linearGradient id="SVGID_17_" gradientUnits="userSpaceOnUse" x1="-346.5183" y1="247.2825" x2="-594.7205" y2="299.2231" gradientTransform="matrix(-0.7043 0.7099 0.7099 0.7043 -155.3888 367.4965)">
		<stop  offset="0" style="stop-color:#FCEE21"/>
		<stop  offset="7.266897e-002" style="stop-color:#FBE521"/>
		<stop  offset="0.1935" style="stop-color:#FACB20"/>
		<stop  offset="0.3466" style="stop-color:#F8A21E"/>
		<stop  offset="0.3966" style="stop-color:#F7931E"/>
		<stop  offset="0.7075" style="stop-color:#F15A24"/>
		<stop  offset="0.9944" style="stop-color:#C1272D"/>
	</linearGradient>
	<path fill="url(#SVGID_17_)" d="M278.8,260.1c-0.3-25.3,11.8-48.3,36.2-54.8c-8.1,2.5-10.3,3.8-18.8,2.8c17.7-11,34.5-23.4,50.4-37
		c14.2-12.2,28.1-26.3,33.3-44.2c1.9,14.6-0.3,29.8-6.3,43.2c-3.3,7.5-7.8,14.5-12.7,21.1c18.3-17.2,39.1-32.1,62.3-41.9
		c23.1-9.8,48.8-14.5,73.7-11.4c-34.9,4.5-63.8,29.1-97.3,39.7c30.9-9,65.6-3.8,92.5,13.9c-32.1,6.3-64.9,8-97.6,9.7
		c17.3,1.2,35,2.4,51.3,8.5s31.4,17.6,37.5,33.9c-25.6-4.3-51.6-8.7-77.3-4.7c-7.4,1.2-14.9,3.1-21.3,7.1
		c-5.3,3.3-10.3,16.7-15.1,20.7c-15.2,12.6-34.7,10-54.4,8c-5.5-0.6-10.9-1.7-16.4-1.3c-5.4,0.4-10.7,2.5-15.1,5.8"/>
</g>
<g opacity="0.59">
	
		<linearGradient id="SVGID_18_" gradientUnits="userSpaceOnUse" x1="-363.2006" y1="215.0297" x2="-611.4028" y2="266.9703" gradientTransform="matrix(-0.7355 0.6775 0.6775 0.7355 -142.3886 364.2475)">
		<stop  offset="0" style="stop-color:#FCEE21"/>
		<stop  offset="7.266897e-002" style="stop-color:#FBE521"/>
		<stop  offset="0.1935" style="stop-color:#FACB20"/>
		<stop  offset="0.3466" style="stop-color:#F8A21E"/>
		<stop  offset="0.3966" style="stop-color:#F7931E"/>
		<stop  offset="0.7075" style="stop-color:#F15A24"/>
		<stop  offset="0.9944" style="stop-color:#C1272D"/>
	</linearGradient>
	<path fill="url(#SVGID_18_)" d="M286.7,241.5c0.8-25.3,14-47.7,38.7-53.1c-8.3,2.2-10.5,3.3-18.9,1.9c18.2-10.2,35.6-21.8,52-34.7
		c14.7-11.6,29.3-25,35.3-42.7c1.2,14.7-1.7,29.7-8.2,42.9c-3.7,7.4-8.4,14.1-13.6,20.5c19.1-16.4,40.5-30.3,64.1-39
		s49.4-12.3,74.1-8c-35.1,2.9-65,26.3-99,35.3c31.3-7.6,65.7-0.8,91.8,18c-32.4,4.8-65.2,5.1-97.9,5.3c17.3,2,34.8,4,50.8,10.8
		c16,6.8,30.6,19,35.9,35.6c-25.3-5.5-51.2-11-77-8.1c-7.5,0.8-15,2.4-21.6,6.1c-5.4,3.1-11.1,16.2-16,20
		c-15.7,11.9-35.2,8.5-54.7,5.6c-5.4-0.8-10.8-2.2-16.3-2c-5.5,0.2-10.9,2-15.3,5.2"/>
</g>
<g opacity="0.59">
	
		<linearGradient id="SVGID_19_" gradientUnits="userSpaceOnUse" x1="474.134" y1="244.0494" x2="225.9318" y2="295.99" gradientTransform="matrix(0.7099 -0.7043 0.7043 0.7099 -208.6184 420.7262)">
		<stop  offset="0" style="stop-color:#FCEE21"/>
		<stop  offset="7.266897e-002" style="stop-color:#FBE521"/>
		<stop  offset="0.1935" style="stop-color:#FACB20"/>
		<stop  offset="0.3466" style="stop-color:#F8A21E"/>
		<stop  offset="0.3966" style="stop-color:#F7931E"/>
		<stop  offset="0.7075" style="stop-color:#F15A24"/>
		<stop  offset="0.9944" style="stop-color:#C1272D"/>
	</linearGradient>
	<path fill="url(#SVGID_19_)" d="M264.3,274.7c-25.3-0.3-48.3,11.8-54.8,36.2c2.5-8.1,3.8-10.3,2.8-18.8c-11,17.7-23.4,34.5-37,50.4
		c-12.2,14.2-26.3,28.1-44.2,33.3c14.6,1.9,29.8-0.3,43.2-6.3c7.5-3.3,14.5-7.8,21.1-12.7c-17.2,18.3-32.1,39.1-41.9,62.3
		s-14.5,48.8-11.4,73.7c4.5-34.9,29.1-63.8,39.7-97.3c-9,30.9-3.8,65.6,13.9,92.5c6.3-32.1,8-64.9,9.7-97.6
		c1.2,17.3,2.4,35,8.5,51.3s17.6,31.4,33.9,37.5c-4.3-25.6-8.7-51.6-4.7-77.3c1.2-7.4,3.1-14.9,7.1-21.3
		c3.3-5.3,16.7-10.3,20.7-15.1c12.6-15.2,10-34.7,8-54.4c-0.6-5.5-1.7-10.9-1.3-16.4c0.4-5.4,2.5-10.7,5.8-15.1"/>
</g>
<g opacity="0.59">
	
		<linearGradient id="SVGID_20_" gradientUnits="userSpaceOnUse" x1="456.7664" y1="248.7159" x2="208.5642" y2="300.6566" gradientTransform="matrix(0.6775 -0.7355 0.7355 0.6775 -211.8674 433.7263)">
		<stop  offset="0" style="stop-color:#FCEE21"/>
		<stop  offset="7.266897e-002" style="stop-color:#FBE521"/>
		<stop  offset="0.1935" style="stop-color:#FACB20"/>
		<stop  offset="0.3466" style="stop-color:#F8A21E"/>
		<stop  offset="0.3966" style="stop-color:#F7931E"/>
		<stop  offset="0.7075" style="stop-color:#F15A24"/>
		<stop  offset="0.9944" style="stop-color:#C1272D"/>
	</linearGradient>
	<path fill="url(#SVGID_20_)" d="M245.6,282.5c-25.3,0.8-47.7,14-53.1,38.7c2.2-8.3,3.3-10.5,1.9-18.9c-10.2,18.2-21.8,35.6-34.7,52
		c-11.6,14.7-25,29.3-42.7,35.3c14.7,1.2,29.7-1.7,42.9-8.2c7.4-3.7,14.1-8.4,20.5-13.6c-16.4,19.1-30.3,40.5-39,64.1
		c-8.8,23.6-12.3,49.4-8,74.1c2.9-35.1,26.3-65,35.3-99c-7.6,31.3-0.8,65.7,18,91.8c4.8-32.4,5.1-65.2,5.3-97.9
		c2,17.3,4,34.8,10.8,50.8c6.8,16,19,30.6,35.6,35.9c-5.5-25.3-11-51.2-8.1-77c0.8-7.5,2.4-15,6.1-21.6c3.1-5.4,16.2-11.1,20-16
		c11.9-15.7,8.5-35.2,5.6-54.7c-0.8-5.4-2.2-10.8-2-16.3c0.2-5.5,2-10.9,5.2-15.3"/>
</g>
<g opacity="0.59">
	
		<linearGradient id="SVGID_21_" gradientUnits="userSpaceOnUse" x1="-345.8026" y1="428.9648" x2="-594.0047" y2="480.9055" gradientTransform="matrix(-0.7099 0.7043 -0.7043 -0.7099 317.0297 839.915)">
		<stop  offset="0" style="stop-color:#FCEE21"/>
		<stop  offset="7.266897e-002" style="stop-color:#FBE521"/>
		<stop  offset="0.1935" style="stop-color:#FACB20"/>
		<stop  offset="0.3466" style="stop-color:#F8A21E"/>
		<stop  offset="0.3966" style="stop-color:#F7931E"/>
		<stop  offset="0.7075" style="stop-color:#F15A24"/>
		<stop  offset="0.9944" style="stop-color:#C1272D"/>
	</linearGradient>
	<path fill="url(#SVGID_21_)" d="M296,277.2c25.3,0.3,48.3-11.8,54.8-36.2c-2.5,8.1-3.8,10.3-2.8,18.8c11-17.7,23.4-34.5,37-50.4
		c12.2-14.2,26.3-28.1,44.2-33.3c-14.6-1.9-29.8,0.3-43.2,6.3c-7.5,3.3-14.5,7.8-21.1,12.7c17.2-18.3,32.1-39.1,41.9-62.3
		c9.8-23.1,14.5-48.8,11.4-73.7c-4.5,34.9-29.1,63.8-39.7,97.3c9-30.9,3.8-65.6-13.9-92.5c-6.3,32.1-8,64.9-9.7,97.6
		c-1.2-17.3-2.4-35-8.5-51.3c-6-16.3-17.6-31.4-33.9-37.5c4.3,25.6,8.7,51.6,4.7,77.3c-1.2,7.4-3.1,14.9-7.1,21.3
		c-3.3,5.3-16.7,10.3-20.7,15.1c-12.6,15.2-10,34.7-8,54.4c0.6,5.5,1.7,10.9,1.3,16.4c-0.4,5.4-2.5,10.7-5.8,15.1"/>
</g>
<g opacity="0.59">
	
		<linearGradient id="SVGID_22_" gradientUnits="userSpaceOnUse" x1="-370.6583" y1="396.5604" x2="-618.8605" y2="448.501" gradientTransform="matrix(-0.6775 0.7355 -0.7355 -0.6775 320.2788 826.9149)">
		<stop  offset="0" style="stop-color:#FCEE21"/>
		<stop  offset="7.266897e-002" style="stop-color:#FBE521"/>
		<stop  offset="0.1935" style="stop-color:#FACB20"/>
		<stop  offset="0.3466" style="stop-color:#F8A21E"/>
		<stop  offset="0.3966" style="stop-color:#F7931E"/>
		<stop  offset="0.7075" style="stop-color:#F15A24"/>
		<stop  offset="0.9944" style="stop-color:#C1272D"/>
	</linearGradient>
	<path fill="url(#SVGID_22_)" d="M314.6,269.4c25.3-0.8,47.7-14,53.1-38.7c-2.2,8.3-3.3,10.5-1.9,18.9c10.2-18.2,21.8-35.6,34.7-52
		c11.6-14.7,25-29.3,42.7-35.3c-14.7-1.2-29.7,1.7-42.9,8.2c-7.4,3.7-14.1,8.4-20.5,13.6c16.4-19.1,30.3-40.5,39-64.1
		s12.3-49.4,8-74.1c-2.9,35.1-26.3,65-35.3,99c7.6-31.3,0.8-65.7-18-91.8c-4.8,32.4-5.1,65.2-5.3,97.9c-2-17.3-4-34.8-10.8-50.8
		s-19-30.6-35.6-35.9c5.5,25.3,11,51.2,8.1,77c-0.8,7.5-2.4,15-6.1,21.6c-3.1,5.4-16.2,11.1-20,16c-11.9,15.7-8.5,35.2-5.6,54.7
		c0.8,5.4,2.2,10.8,2,16.3c-0.2,5.5-2,10.9-5.2,15.3"/>
</g>
<g opacity="0.59">
	
		<linearGradient id="SVGID_23_" gradientUnits="userSpaceOnUse" x1="474.8497" y1="425.7318" x2="226.6476" y2="477.6724" gradientTransform="matrix(0.7043 -0.7099 -0.7099 -0.7043 263.8001 893.1447)">
		<stop  offset="0" style="stop-color:#FCEE21"/>
		<stop  offset="7.266897e-002" style="stop-color:#FBE521"/>
		<stop  offset="0.1935" style="stop-color:#FACB20"/>
		<stop  offset="0.3466" style="stop-color:#F8A21E"/>
		<stop  offset="0.3966" style="stop-color:#F7931E"/>
		<stop  offset="0.7075" style="stop-color:#F15A24"/>
		<stop  offset="0.9944" style="stop-color:#C1272D"/>
	</linearGradient>
	<path fill="url(#SVGID_23_)" d="M281.4,291.8c0.3,25.3-11.8,48.3-36.2,54.8c8.1-2.5,10.3-3.8,18.8-2.8c-17.7,11-34.5,23.4-50.4,37
		C199.4,393,185.5,407,180.3,425c-1.9-14.6,0.3-29.8,6.3-43.2c3.3-7.5,7.8-14.5,12.7-21.1c-18.3,17.2-39.1,32.1-62.3,41.9
		c-23.1,9.8-48.8,14.5-73.7,11.4c34.9-4.5,63.8-29.1,97.3-39.7c-30.9,9-65.6,3.8-92.5-13.9c32.1-6.3,64.9-8,97.6-9.7
		c-17.3-1.2-35-2.4-51.3-8.5c-16.3-6-31.4-17.6-37.5-33.9c25.6,4.3,51.6,8.7,77.3,4.7c7.4-1.2,14.9-3.1,21.3-7.1
		c5.3-3.3,10.3-16.7,15.1-20.7c15.2-12.6,34.7-10,54.4-8c5.5,0.6,10.9,1.7,16.4,1.3c5.4-0.4,10.7-2.5,15.1-5.8"/>
</g>
<g opacity="0.59">
	
		<linearGradient id="SVGID_24_" gradientUnits="userSpaceOnUse" x1="449.3087" y1="430.2466" x2="201.1065" y2="482.1872" gradientTransform="matrix(0.7355 -0.6775 -0.6775 -0.7355 250.8 896.3937)">
		<stop  offset="0" style="stop-color:#FCEE21"/>
		<stop  offset="7.266897e-002" style="stop-color:#FBE521"/>
		<stop  offset="0.1935" style="stop-color:#FACB20"/>
		<stop  offset="0.3466" style="stop-color:#F8A21E"/>
		<stop  offset="0.3966" style="stop-color:#F7931E"/>
		<stop  offset="0.7075" style="stop-color:#F15A24"/>
		<stop  offset="0.9944" style="stop-color:#C1272D"/>
	</linearGradient>
	<path fill="url(#SVGID_24_)" d="M273.6,310.4c-0.8,25.3-14,47.7-38.7,53.1c8.3-2.2,10.5-3.3,18.9-1.9c-18.2,10.2-35.6,21.8-52,34.7
		c-14.7,11.6-29.3,25-35.3,42.7c-1.2-14.7,1.7-29.7,8.2-42.9c3.7-7.4,8.4-14.1,13.6-20.5c-19.1,16.4-40.5,30.3-64.1,39
		c-23.6,8.8-49.4,12.3-74.1,8c35.1-2.9,65-26.3,99-35.3c-31.3,7.6-65.7,0.8-91.8-18c32.4-4.8,65.2-5.1,97.9-5.3
		c-17.3-2-34.8-4-50.8-10.8s-30.6-19-35.9-35.6c25.3,5.5,51.2,11,77,8.1c7.5-0.8,15-2.4,21.6-6.1c5.4-3.1,11.1-16.2,16-20
		c15.7-11.9,35.2-8.5,54.7-5.6c5.4,0.8,10.8,2.2,16.3,2c5.5-0.2,10.9-2,15.3-5.2"/>
</g>
<g opacity="0.59">
	
		<linearGradient id="SVGID_25_" gradientUnits="userSpaceOnUse" x1="-22.9264" y1="175.5083" x2="-271.1286" y2="227.449" gradientTransform="matrix(-0.7099 -0.7043 -0.7043 0.7099 366.5272 118.1004)">
		<stop  offset="0" style="stop-color:#FCEE21"/>
		<stop  offset="7.266897e-002" style="stop-color:#FBE521"/>
		<stop  offset="0.1935" style="stop-color:#FACB20"/>
		<stop  offset="0.3466" style="stop-color:#F8A21E"/>
		<stop  offset="0.3966" style="stop-color:#F7931E"/>
		<stop  offset="0.7075" style="stop-color:#F15A24"/>
		<stop  offset="0.9944" style="stop-color:#C1272D"/>
	</linearGradient>
	<path fill="url(#SVGID_25_)" d="M294.8,273.5c25.3-0.3,48.3,11.8,54.8,36.2c-2.5-8.1-3.8-10.3-2.8-18.8c11,17.7,23.4,34.5,37,50.4
		c12.2,14.2,26.3,28.1,44.2,33.3c-14.6,1.9-29.8-0.3-43.2-6.3c-7.5-3.3-14.5-7.8-21.1-12.7c17.2,18.3,32.1,39.1,41.9,62.3
		c9.8,23.1,14.5,48.8,11.4,73.7c-4.5-34.9-29.1-63.8-39.7-97.3c9,30.9,3.8,65.6-13.9,92.5c-6.3-32.1-8-64.9-9.7-97.6
		c-1.2,17.3-2.4,35-8.5,51.3s-17.6,31.4-33.9,37.5c4.3-25.6,8.7-51.6,4.7-77.3c-1.2-7.4-3.1-14.9-7.1-21.3
		c-3.3-5.3-16.7-10.3-20.7-15.1c-12.6-15.2-10-34.7-8-54.4c0.6-5.5,1.7-10.9,1.3-16.4c-0.4-5.4-2.5-10.7-5.8-15.1"/>
</g>
<g opacity="0.59">
	
		<linearGradient id="SVGID_26_" gradientUnits="userSpaceOnUse" x1="-36.7076" y1="157.8846" x2="-284.9098" y2="209.8253" gradientTransform="matrix(-0.6775 -0.7355 -0.7355 0.6775 369.7762 131.1005)">
		<stop  offset="0" style="stop-color:#FCEE21"/>
		<stop  offset="7.266897e-002" style="stop-color:#FBE521"/>
		<stop  offset="0.1935" style="stop-color:#FACB20"/>
		<stop  offset="0.3466" style="stop-color:#F8A21E"/>
		<stop  offset="0.3966" style="stop-color:#F7931E"/>
		<stop  offset="0.7075" style="stop-color:#F15A24"/>
		<stop  offset="0.9944" style="stop-color:#C1272D"/>
	</linearGradient>
	<path fill="url(#SVGID_26_)" d="M313.4,281.3c25.3,0.8,47.7,14,53.1,38.7c-2.2-8.3-3.3-10.5-1.9-18.9c10.2,18.2,21.8,35.6,34.7,52
		c11.6,14.7,25,29.3,42.7,35.3c-14.7,1.2-29.7-1.7-42.9-8.2c-7.4-3.7-14.1-8.4-20.5-13.6c16.4,19.1,30.3,40.5,39,64.1
		c8.8,23.6,12.3,49.4,8,74.1c-2.9-35.1-26.3-65-35.3-99c7.6,31.3,0.8,65.7-18,91.8c-4.8-32.4-5.1-65.2-5.3-97.9
		c-2,17.3-4,34.8-10.8,50.8c-6.8,16-19,30.6-35.6,35.9c5.5-25.3,11-51.2,8.1-77c-0.8-7.5-2.4-15-6.1-21.6c-3.1-5.4-16.2-11.1-20-16
		c-11.9-15.7-8.5-35.2-5.6-54.7c0.8-5.4,2.2-10.8,2-16.3c-0.2-5.5-2-10.9-5.2-15.3"/>
</g>
<g opacity="0.59">
	
		<linearGradient id="SVGID_27_" gradientUnits="userSpaceOnUse" x1="149.9866" y1="174.8271" x2="-98.2156" y2="226.7678" gradientTransform="matrix(0.7043 0.7099 -0.7099 0.7043 313.2975 64.8708)">
		<stop  offset="0" style="stop-color:#FCEE21"/>
		<stop  offset="7.266897e-002" style="stop-color:#FBE521"/>
		<stop  offset="0.1935" style="stop-color:#FACB20"/>
		<stop  offset="0.3466" style="stop-color:#F8A21E"/>
		<stop  offset="0.3966" style="stop-color:#F7931E"/>
		<stop  offset="0.7075" style="stop-color:#F15A24"/>
		<stop  offset="0.9944" style="stop-color:#C1272D"/>
	</linearGradient>
	<path fill="url(#SVGID_27_)" d="M280.2,258.9c0.3-25.3-11.8-48.3-36.2-54.8c8.1,2.5,10.3,3.8,18.8,2.8c-17.7-11-34.5-23.4-50.4-37
		c-14.2-12.2-28.1-26.3-33.3-44.2c-1.9,14.6,0.3,29.8,6.3,43.2c3.3,7.5,7.8,14.5,12.7,21.1c-18.3-17.2-39.1-32.1-62.3-41.9
		S87,133.7,62.1,136.8c34.9,4.5,63.8,29.1,97.3,39.7c-30.9-9-65.6-3.8-92.5,13.9c32.1,6.3,64.9,8,97.6,9.7
		c-17.3,1.2-35,2.4-51.3,8.5s-31.4,17.6-37.5,33.9c25.6-4.3,51.6-8.7,77.3-4.7c7.4,1.2,14.9,3.1,21.3,7.1
		c5.3,3.3,10.3,16.7,15.1,20.7c15.2,12.6,34.7,10,54.4,8c5.5-0.6,10.9-1.7,16.4-1.3c5.4,0.4,10.7,2.5,15.1,5.8"/>
</g>
<g opacity="0.59">
	
		<linearGradient id="SVGID_28_" gradientUnits="userSpaceOnUse" x1="136.061" y1="164.9824" x2="-112.1411" y2="216.923" gradientTransform="matrix(0.7355 0.6775 -0.6775 0.7355 300.2974 61.6217)">
		<stop  offset="0" style="stop-color:#FCEE21"/>
		<stop  offset="7.266897e-002" style="stop-color:#FBE521"/>
		<stop  offset="0.1935" style="stop-color:#FACB20"/>
		<stop  offset="0.3466" style="stop-color:#F8A21E"/>
		<stop  offset="0.3966" style="stop-color:#F7931E"/>
		<stop  offset="0.7075" style="stop-color:#F15A24"/>
		<stop  offset="0.9944" style="stop-color:#C1272D"/>
	</linearGradient>
	<path fill="url(#SVGID_28_)" d="M272.4,240.3c-0.8-25.3-14-47.7-38.7-53.1c8.3,2.2,10.5,3.3,18.9,1.9c-18.2-10.2-35.6-21.8-52-34.7
		c-14.7-11.6-29.3-25-35.3-42.7c-1.2,14.7,1.7,29.7,8.2,42.9c3.7,7.4,8.4,14.1,13.6,20.5c-19.1-16.4-40.5-30.3-64.1-39
		s-49.4-12.3-74.1-8c35.1,2.9,65,26.3,99,35.3c-31.3-7.6-65.7-0.8-91.8,18c32.4,4.8,65.2,5.1,97.9,5.3c-17.3,2-34.8,4-50.8,10.8
		c-16,6.8-30.6,19-35.9,35.6c25.3-5.5,51.2-11,77-8.1c7.5,0.8,15,2.4,21.6,6.1c5.4,3.1,11.1,16.2,16,20c15.7,11.9,35.2,8.5,54.7,5.6
		c5.4-0.8,10.8-2.2,16.3-2c5.5,0.2,10.9,2,15.3,5.2"/>
</g>
<g opacity="0.59">
	
		<linearGradient id="SVGID_29_" gradientUnits="userSpaceOnUse" x1="-21.6552" y1="498.1871" x2="-269.8573" y2="550.1277" gradientTransform="matrix(-0.7043 -0.7099 0.7099 -0.7043 -105.8913 590.5189)">
		<stop  offset="0" style="stop-color:#FCEE21"/>
		<stop  offset="7.266897e-002" style="stop-color:#FBE521"/>
		<stop  offset="0.1935" style="stop-color:#FACB20"/>
		<stop  offset="0.3466" style="stop-color:#F8A21E"/>
		<stop  offset="0.3966" style="stop-color:#F7931E"/>
		<stop  offset="0.7075" style="stop-color:#F15A24"/>
		<stop  offset="0.9944" style="stop-color:#C1272D"/>
	</linearGradient>
	<path fill="url(#SVGID_29_)" d="M277.6,290.6c-0.3,25.3,11.8,48.3,36.2,54.8c-8.1-2.5-10.3-3.8-18.8-2.8c17.7,11,34.5,23.4,50.4,37
		c14.2,12.2,28.1,26.3,33.3,44.2c1.9-14.6-0.3-29.8-6.3-43.2c-3.3-7.5-7.8-14.5-12.7-21.1c18.3,17.2,39.1,32.1,62.3,41.9
		s48.8,14.5,73.7,11.4c-34.9-4.5-63.8-29.1-97.3-39.7c30.9,9,65.6,3.8,92.5-13.9c-32.1-6.3-64.9-8-97.6-9.7
		c17.3-1.2,35-2.4,51.3-8.5c16.3-6,31.4-17.6,37.5-33.9c-25.6,4.3-51.6,8.7-77.3,4.7c-7.4-1.2-14.9-3.1-21.3-7.1
		c-5.3-3.3-10.3-16.7-15.1-20.7c-15.2-12.6-34.7-10-54.4-8c-5.5,0.6-10.9,1.7-16.4,1.3c-5.4-0.4-10.7-2.5-15.1-5.8"/>
</g>
<g opacity="0.59">
	
		<linearGradient id="SVGID_30_" gradientUnits="userSpaceOnUse" x1="-49.953" y1="480.2939" x2="-298.1551" y2="532.2346" gradientTransform="matrix(-0.7355 -0.6775 0.6775 -0.7355 -92.8912 593.7679)">
		<stop  offset="0" style="stop-color:#FCEE21"/>
		<stop  offset="7.266897e-002" style="stop-color:#FBE521"/>
		<stop  offset="0.1935" style="stop-color:#FACB20"/>
		<stop  offset="0.3466" style="stop-color:#F8A21E"/>
		<stop  offset="0.3966" style="stop-color:#F7931E"/>
		<stop  offset="0.7075" style="stop-color:#F15A24"/>
		<stop  offset="0.9944" style="stop-color:#C1272D"/>
	</linearGradient>
	<path fill="url(#SVGID_30_)" d="M285.5,309.2c0.8,25.3,14,47.7,38.7,53.1c-8.3-2.2-10.5-3.3-18.9-1.9c18.2,10.2,35.6,21.8,52,34.7
		c14.7,11.6,29.3,25,35.3,42.7c1.2-14.7-1.7-29.7-8.2-42.9c-3.7-7.4-8.4-14.1-13.6-20.5c19.1,16.4,40.5,30.3,64.1,39
		c23.6,8.8,49.4,12.3,74.1,8c-35.1-2.9-65-26.3-99-35.3c31.3,7.6,65.7,0.8,91.8-18c-32.4-4.8-65.2-5.1-97.9-5.3
		c17.3-2,34.8-4,50.8-10.8c16-6.8,30.6-19,35.9-35.6c-25.3,5.5-51.2,11-77,8.1c-7.5-0.8-15-2.4-21.6-6.1c-5.4-3.1-11.1-16.2-16-20
		c-15.7-11.9-35.2-8.5-54.7-5.6c-5.4,0.8-10.8,2.2-16.3,2c-5.5-0.2-10.9-2-15.3-5.2"/>
</g>
<g opacity="0.59">
	
		<linearGradient id="SVGID_31_" gradientUnits="userSpaceOnUse" x1="151.2578" y1="497.5059" x2="-96.9443" y2="549.4465" gradientTransform="matrix(0.7099 0.7043 0.7043 -0.7099 -159.1209 537.2892)">
		<stop  offset="0" style="stop-color:#FCEE21"/>
		<stop  offset="7.266897e-002" style="stop-color:#FBE521"/>
		<stop  offset="0.1935" style="stop-color:#FACB20"/>
		<stop  offset="0.3466" style="stop-color:#F8A21E"/>
		<stop  offset="0.3966" style="stop-color:#F7931E"/>
		<stop  offset="0.7075" style="stop-color:#F15A24"/>
		<stop  offset="0.9944" style="stop-color:#C1272D"/>
	</linearGradient>
	<path fill="url(#SVGID_31_)" d="M263.1,276c-25.3,0.3-48.3-11.8-54.8-36.2c2.5,8.1,3.8,10.3,2.8,18.8c-11-17.7-23.4-34.5-37-50.4
		c-12.2-14.2-26.3-28.1-44.2-33.3c14.6-1.9,29.8,0.3,43.2,6.3c7.5,3.3,14.5,7.8,21.1,12.7c-17.2-18.3-32.1-39.1-41.9-62.3
		S137.8,82.9,141,57.9c4.5,34.9,29.1,63.8,39.7,97.3c-9-30.9-3.8-65.6,13.9-92.5c6.3,32.1,8,64.9,9.7,97.6c1.2-17.3,2.4-35,8.5-51.3
		s17.6-31.4,33.9-37.5c-4.3,25.6-8.7,51.6-4.7,77.3c1.2,7.4,3.1,14.9,7.1,21.3c3.3,5.3,16.7,10.3,20.7,15.1
		c12.6,15.2,10,34.7,8,54.4c-0.6,5.5-1.7,10.9-1.3,16.4c0.4,5.4,2.5,10.7,5.8,15.1"/>
</g>
<g opacity="0.59">
	
		<linearGradient id="SVGID_32_" gradientUnits="userSpaceOnUse" x1="122.8157" y1="487.3916" x2="-125.3865" y2="539.3323" gradientTransform="matrix(0.6775 0.7355 0.7355 -0.6775 -162.37 524.2891)">
		<stop  offset="0" style="stop-color:#FCEE21"/>
		<stop  offset="7.266897e-002" style="stop-color:#FBE521"/>
		<stop  offset="0.1935" style="stop-color:#FACB20"/>
		<stop  offset="0.3466" style="stop-color:#F8A21E"/>
		<stop  offset="0.3966" style="stop-color:#F7931E"/>
		<stop  offset="0.7075" style="stop-color:#F15A24"/>
		<stop  offset="0.9944" style="stop-color:#C1272D"/>
	</linearGradient>
	<path fill="url(#SVGID_32_)" d="M244.5,268.2c-25.3-0.8-47.7-14-53.1-38.7c2.2,8.3,3.3,10.5,1.9,18.9c-10.2-18.2-21.8-35.6-34.7-52
		c-11.6-14.7-25-29.3-42.7-35.3c14.7-1.2,29.7,1.7,42.9,8.2c7.4,3.7,14.1,8.4,20.5,13.6c-16.4-19.1-30.3-40.5-39-64.1
		c-8.8-23.6-12.3-49.4-8-74.1c2.9,35.1,26.3,65,35.3,99c-7.6-31.3-0.8-65.7,18-91.8c4.8,32.4,5.1,65.2,5.3,97.9
		c2-17.3,4-34.8,10.8-50.8c6.8-16,19-30.6,35.6-35.9c-5.5,25.3-11,51.2-8.1,77c0.8,7.5,2.4,15,6.1,21.6c3.1,5.4,16.2,11.1,20,16
		c11.9,15.7,8.5,35.2,5.6,54.7c-0.8,5.4-2.2,10.8-2,16.3c0.2,5.5,2,10.9,5.2,15.3"/>
</g>
<g>
	<g>
		<path fill="#FFFFFF" d="M392.8,268.9c-2,6.1-5.1,14.6-12.7,15c-7.4,0.4-12.2-7.2-12.8-13.7c0,4.2,0.1,8.3,0.1,12.5
			c0-0.5,0-1.1,0-1.6c0,4.2-0.1,8.3-0.1,12.5c0.6-7.3,4.2-13.4,8-19.5c1.4-2.3-1.1-24.9,0-25c-12.7,1.4-13.7,16.5-18.1,25.7
			c-1.5,3.2-6.7,9.4-9.8,4.3c-0.6-1.1-0.8-2.4-0.7-3.7c0,6.2,0,12.5,0,18.7c0.3-2.3,0.4-4.5,0.9-6.7c0.7-3.6,1.8-7,3.1-10.3
			c0-8.3,0-16.7,0-25c-1.3,5.2-3.5,10-6.7,14.2c-1,1.4-3.2,4.8-4.8,5.2c-0.8,1-1.1,0.6-1.2-1.2c-0.2-0.6-0.3-1.1-0.5-1.7
			c-0.1-0.6-0.3-1.2-0.4-1.7c-1.1-7.1-1.3-2.3-0.5,14.3c0.4-4.1,0.1-8.4,0.1-12.5c0-2.9,0-5.9,0-8.8c0-0.7-0.4-3.2-0.1-3.7
			c-3,3.8-10.4,17.1-14.3,7.1c-2.5-6.4-2.5-12.8-6.9-18.6c-9.5-12.5-27.5-7.9-37.9,0.9c-4.9,4.2-8.3,9.7-8.8,16.2
			c-0.4,5.8-0.1,11.7-0.1,17.6c0,3.7-0.2,7.5,0.3,11.1c0.9,5.9,4.9,11.5,11.1,12.4c5.5,0.8,11.2-2,13.1-7.3c0.8-2.3-0.3-25,0-25
			c-21.5,0.1-48.5,0.6-65.2,16.1c-16,14.9-20.7,37.1-24.9,57.6c-0.8,3.9-0.1,8.6-0.1,12.5c0,2.9,0,5.9,0,8.8c0,1,0.4,2.8,0.1,3.7
			c21.5-56.1,43.5-112.1,64.1-168.6c1.2-3.3,0.1-9,0.1-12.5c0-2.9,0-5.9,0-8.8c0-1-0.4-2.8-0.1-3.7
			c-20.5,56.5-42.5,112.5-64.1,168.6c0,8.3,0,16.7,0,25c4.2-20.5,8.9-42.7,24.9-57.6c16.7-15.6,43.7-16.1,65.2-16.1
			c0-8.3,0-16.7,0-25c-2,5.5-8,8.3-13.6,7.2c-6.8-1.3-10.3-7.9-10.8-14.4c0,2.1,0.1,4.1,0.1,6.2c0.1,4.9,0.1,9.8,0.2,14.7
			c0.1-0.4,0.2-0.9,0.3-1.3c0.4-1.1,0.7-2.2,1.2-3.3c0.8-1.7,1.8-3.4,3-4.9c2.6-3.2,5.8-5.9,9.4-8c7.4-4.4,17.2-6.8,25.4-3
			c7.7,3.6,11.3,12,13,19.9c0.6,2.7,1.2,8.4,4.9,8.6c2.1,0.1,3.4-2.3,4.5-3.6c2-2.5,4-5,5.9-7.5c0-8.3,0-16.7,0-25
			c-0.6,6.4-0.4,12.9-0.3,19.4c0,5.4-0.3,11,0.8,16.3c0.2,1.1,0.4,2.5,0.9,3.5c0.9,1.8,0.1,1.7,1.8,0.6c1.8-1.1,3.5-3.6,4.7-5.3
			c3-4.1,5-8.7,6.2-13.6c0.9-3.7,0.1-8.7,0.1-12.5c0-2.9,0-5.9,0-8.8c0-0.9-0.4-2.8-0.1-3.7c-3.4,8.3-4.2,16.6-4.2,25.5
			c0,6.7-0.1,13.5,0.1,20.2c0.1,2.8-0.4,7.8,3.3,8.3c7.1,0.9,9.5-12.4,11.1-16.9c2.3-6.9,6.4-14,14.3-14.9c0-8.3,0-16.7,0-25
			c-3.9,6.2-7.6,12.5-8,19.9c-0.3,5.6-0.1,11.3-0.1,17c0,4.1-0.5,8.6,0.7,12.5c1.7,5.7,7.1,11.4,13.6,10.2c6.8-1.3,9.6-9,11.4-14.8
			c1.1-3.5,0.1-8.9,0.1-12.5c0-2.9,0-5.9,0-8.8C392.9,271.6,392.5,269.9,392.8,268.9L392.8,268.9z"/>
	</g>
</g>
<g>
	<g>
		<path fill="#FFFFFF" d="M337.6,389.2c18.5-49.8,37-99.6,55.6-149.4c0.3-0.8,0.1-3,0.1-3.7c0-2.9,0-5.9,0-8.8c0-2.9,0-5.9,0-8.8
			c0-1-0.4-2.8-0.1-3.7c-18.5,49.8-37,99.6-55.6,149.4c-0.3,0.8-0.1,3-0.1,3.7c0,2.9,0,5.9,0,8.8c0,2.9,0,5.9,0,8.8
			C337.5,386.5,337.9,388.3,337.6,389.2L337.6,389.2z"/>
	</g>
</g>
<g>
	<g>
		<path fill="#FFFFFF" d="M251.6,225.3c-8.6,3.5-17.6,5.4-26.8,6.2c-4.5,0.4-8.9,0.5-13.4,0.4c-3.2,0-9.9-1.8-12.5,0.2
			c-2.6,2-2.7,8.8-3.1,11.7c-0.5,4.5-0.6,9-0.6,13.5c0,6.3-0.1,12.6,0,18.9c0.1,3.3-0.1,8.5,4.6,6.1c3.3-1.7,6.2-5.7,8.5-8.5
			c2.9-3.5,5.6-7.2,7.8-11.1c5.5-9.4,4.5-18.9,4.5-29.5c0-6.7,1-16.7-7.2-19.3c-7.3-2.3-15.8,3.7-21.1,8.1
			c-13.7,11.3-21.1,28.4-27,44.7c0,8.3,0,16.7,0,25c8-26.9,20.8-52.1,38-74.3c0-8.3,0-16.7,0-25c-2.3,9.6-5.1,20.8-13.3,27.2
			c-4.6,3.6-10.2,4.6-15.9,4.8c-7.3,0.3-14.6,0.3-21.9,0.4c-0.3,0,0,25,0,25c7-0.1,14-0.2,21.1-0.4c6-0.2,11.9-0.9,16.8-4.8
			c8.1-6.4,11-17.6,13.3-27.2c0.9-3.8,0.1-8.6,0.1-12.5c0-2.9,0-5.9,0-8.8c0-0.7-0.4-3.2-0.1-3.7c-17.1,22.2-30,47.4-38,74.3
			c-1.1,3.5-0.1,8.8-0.1,12.5c0,2.9,0,5.9,0,8.8c0,1,0.4,2.8,0.1,3.7c5.1-14.2,11.2-28.6,21.7-39.7c4.9-5.3,11.1-10.3,18.1-12.6
			c8-2.7,14.6,1.3,15.4,9.7c0-2.1-0.1-4.1-0.1-6.2c0,0.4,0,0.9,0,1.3c0-6.3,0.1-12.5,0.1-18.8c-0.8,8-5.8,15.2-10.6,21.3
			c-1.8,2.3-13.6,17.3-14.6,7.9c0,0.6,0,1.1,0.1,1.7c-0.4,17.9-0.4,23.2,0.1,15.8c0.1-1.1,0.2-2.3,0.3-3.4c0.1-1.2,0.3-2.4,0.5-3.6
			c0.4-2.2,0.5-6,2.2-7.7c1.6-1.7,4.4-1,6.5-0.8c3.3,0.2,6.6,0.3,9.9,0.2c12.5-0.1,24.9-2,36.6-6.7c0.8-0.3,0.1-11.3,0.1-12.5
			C251.7,236.7,250.9,225.6,251.6,225.3L251.6,225.3z"/>
	</g>
</g>
</svg>
