<?xml version="1.0" encoding="utf-8"?>
<!-- Generator: Adobe Illustrator 18.1.1, SVG Export Plug-In . SVG Version: 6.00 Build 0)  -->
<svg version="1.1" id="Layer_1" xmlns="http://www.w3.org/2000/svg" xmlns:xlink="http://www.w3.org/1999/xlink" x="0px" y="0px"
	 viewBox="0 0 571.3 560" enable-background="new 0 0 571.3 560" xml:space="preserve">
<g>
	<path fill="none" d="M471.4,92.2c4.4,5,8.9,12.4,15.5,11.1c4.5-0.9,7.2-6.2,6.6-10.7c-0.6-4.6-3.7-8.5-7-11.6
		c-11.9-11.3-27.9-15.7-44.4-15.2c8.4,6.7,16.4,13.9,23.9,21.6C467.9,88.8,469.8,90.4,471.4,92.2z"/>
	<linearGradient id="SVGID_1_" gradientUnits="userSpaceOnUse" x1="-83.8129" y1="623.1592" x2="315.5204" y2="-44.1741">
		<stop  offset="0" style="stop-color:#FFFFFF"/>
		<stop  offset="1" style="stop-color:#534741"/>
	</linearGradient>
	<path fill="url(#SVGID_1_)" d="M235.1,104.7c16.9,6.3,34.6,14.5,52.2,10.4c22.8-5.2,35.8-28.4,52.1-45.2
		c15.6-16.2,36.2-27.5,58.2-32.4C364.7,21.1,327.9,12,289,12c-79.7,0-150.9,38.6-197.2,98.9c16.9-11.1,36.9-17.6,57.2-19.6
		C178.1,88.4,207.7,94.4,235.1,104.7z"/>
	<linearGradient id="SVGID_2_" gradientUnits="userSpaceOnUse" x1="41.243" y1="697.9929" x2="440.5764" y2="30.6596">
		<stop  offset="0" style="stop-color:#FFFFFF"/>
		<stop  offset="1" style="stop-color:#534741"/>
	</linearGradient>
	<path fill="url(#SVGID_2_)" d="M502.1,133.8c-5.3,10.8-12.5,20.5-22.2,27.6c-13.8,10.1-33.2,13.6-48.3,5.7
		c16.7,10.5,37,14.9,56.5,12.4c-16,28.6-52,42-84.5,38.3c-8.8-1-17.9-3.3-24.9-8.7c-7-5.5-11.6-14.8-9.3-23.4s12.7-14.8,20.7-10.8
		c3.2,1.6,7.8,4.1,9.5,1c0.5-0.9,0.4-2.1,0.2-3.1c-2.8-16.2-25.6-23-39-13.5s-16.4,29.3-9.9,44.4c6.5,15.1,20.4,25.8,35.1,32.9
		c17.8,8.7,37.7,13.1,57.6,12.7c6.2-0.1,12.6-0.7,18.6,0.9c6,1.6,11.8,5.9,13.1,12c2.1,10.3-9.5,18.6-20,19.5
		c-16.4,1.5-32-6.9-45-17c-13-10.1-24.6-22.1-39-30c-14.4-7.8-33.1-10.7-46.9-1.7c-3.8,2.5-7.3,6.8-5.8,11.1
		c1.9,5.6,9.7,5.5,15.5,4.5c14.3-2.5,29.4-3.9,43.2,0.8c25.4,8.6,39.8,35,49.6,59.9c7.5,19,13.9,38.9,12.9,59.3
		s-10.5,41.4-28.4,51.2c-17.9,9.8-44,4.6-52.9-13.7c8.1,5.8,19.5,11.7,27.2,5.4c4.6-3.7,5.7-10.4,5.5-16.3
		c-0.6-23.7-16-46.5-37.7-56c-1.5-0.7-3.2-1.4-3.8-2.9c-0.9-2,0.5-4.2,1.9-5.8c12-13.6,35-15.4,49-3.8c3.2,2.7,6.5,5.9,9.5,9.3
		c-4.1-14.1-11.3-27.7-22.6-37c-11.4-9.5-27.2-14.1-41.4-10c-21.5,6.3-34.4,30.3-56.1,35.7c21.2-10.8,29.1-39.3,21.4-61.9
		c-7.7-22.5-27.5-39.1-49.1-49.1c-21.6-9.9-47.6-14.1-68.8-3.3s-33.4,40-20.2,59.7c8.9,13.3,26.6,18.8,42.5,16.7
		c12.7-1.6,25.4-8.2,31-19.7c5.6-11.5,1.2-27.8-10.7-32.2c-10.7-3.9-23.6,3.5-26.9,14.4c-3.2,10.9,2.6,23.4,12.3,29.3
		c-12.4,1.7-25.6-4.6-31.5-15.7c-5.9-11-3.5-26,5.9-34.2c7.5-6.6,18.1-8.4,28.1-8.3c9.9,0.1,20,2,28.6,7
		c18.1,10.5,26.5,34.3,20.8,54.5s-23.8,35.7-44.2,40.3c-20.4,4.6-42.4-1-59.6-13c-18.9-13.2-32.7-35.6-30.6-58.6
		c1.4-14.8,9.2-28.6,19.7-39.1c18.4-18.4,45.7-27.4,71.4-23.7c12.3,1.8,24.2,6.3,36.7,6.6c25.2,0.7,47.8-15.6,64.8-34.1
		c17.1-18.5,31-40.2,50.7-55.9c12.2-9.7,26.5-16.9,41.6-21c14-3.8,30.6-4.1,42.1,3.8c-7.5-7.7-15.5-14.9-23.9-21.6
		c-14.5,0.4-29.3,4.6-42,11.3c-27.3,14.2-48.7,37.4-73.3,55.8c-24.7,18.4-54.9,16-84.5,7.6c-29.7-8.4-30.9-10.6-60.5-15.5
		c-27.2-4.4-68.4,1.9-82.3,10.4c-17.1,10.4-25.5,19.9-30.2,36.1s1.4,36.5,17,43.1c13.8,5.8,30.3-0.7,40.6-11.6
		c3.7-3.9,7-8.8,6.9-14.3c-0.1-5.4-5.3-8.2-10.3-9.9c7.3,1.3,13,7.6,15,14.7c2,7.1,0.8,14.8-1.9,21.6c-9,22.9-37.9,37.6-60.1,26.8
		c-12.6-6.1-21-18.7-25.1-32.1c-1.5-5-2.5-10.1-2.9-15.3c-8,25.8-12.3,53.2-12.3,81.8C36,422.6,149.3,541,289,541
		s253-118.4,253-264.5C542,223.9,527.4,175,502.1,133.8z"/>
</g>
</svg>
